<?xml version="1.0" encoding="UTF-8"?>
<svg viewBox="0 0 315 450" xmlns="http://www.w3.org/2000/svg">
<rect width="314.79" height="449.18" rx="5" fill="#FAEE98"/>
<path d="m152.63 132.76c-5.101 7.566-15.812 22.607-18.387 25.819-0.899 1.121-4.838 6.102-8.754 11.069-8.038 10.195-17.053 20.952-24.412 29.13-10.214 11.35-17.313 19.063-21.546 23.408l-4.3571 4.475 2.573 2.837c1.415 1.561 6.6837 7.281 11.708 12.713 24.602 26.594 43.446 49.995 62.019 77.019 3.139 4.567 5.815 8.302 5.949 8.302 0.135 0 1.87-2.425 3.856-5.389 18.656-27.832 43.888-58.927 71.752-88.427 0.16-0.17 1.707-1.788 3.437-3.594l3.146-3.286-5.482-5.73c-26.993-28.22-54.073-61.394-71.73-87.87-2.351-3.525-4.467-6.623-4.703-6.884-0.237-0.262-2.518 2.622-5.07 6.408z" clip-rule="evenodd" fill="#A1312D" fill-rule="evenodd"/>
</svg>
