<?xml version="1.0" encoding="UTF-8"?>
<svg viewBox="0 0 315 450" xmlns="http://www.w3.org/2000/svg">
<rect width="314.79" height="449.18" rx="5" fill="#FAEE98"/>
<path d="m150.71 122.02c-1.41 0.147-3.674 0.533-5.031 0.86-2.725 0.655-8.73 2.61-9.294 3.025-0.198 0.146-0.734 0.379-1.192 0.517-1.016 0.307-5.545 2.922-7.673 4.43-5.256 3.725-10.25 8.852-13.889 14.26-0.628 0.934-1.142 1.763-1.142 1.841 0 0.079-0.453 0.907-1.006 1.84-5.313 8.96-7.729 22.372-5.992 33.272 0.646 4.052 2.564 10.215 4.265 13.703l1.207 2.477-4.358 0.227c-2.397 0.126-5.651 0.477-7.2325 0.78-2.9455 0.565-8.7147 2.286-10.96 3.269-2.307 1.011-3.7713 1.735-3.9528 1.955-0.0988 0.12-0.5839 0.34-1.078 0.49-0.4941 0.149-0.9792 0.37-1.078 0.49-0.3022 0.366-2.4712 1.809-2.7195 1.809-0.4941 0-5.1318 3.812-7.7313 6.355-2.6397 2.583-7.5163 8.548-7.5163 9.195 0 0.175-0.2024 0.529-0.4492 0.786-0.861 0.896-3.8511 7.211-4.9201 10.392-3.1924 9.497-3.4619 21.859-0.667 30.579 1.041 3.248 1.5628 4.617 2.6764 7.018 0.6619 1.428 1.2038 2.741 1.2038 2.919 0 0.177 0.1617 0.322 0.3593 0.322 0.1977 0 0.3594 0.203 0.3594 0.45 0 0.248 0.5659 1.296 1.2577 2.33 0.6917 1.034 1.2577 2.026 1.2577 2.203 0 0.178 0.1401 0.323 0.3115 0.323s0.7665 0.677 1.3224 1.504c1.4571 2.168 6.3827 7.34 6.9899 7.34 0.198 0 0.3597 0.136 0.3597 0.302 0 0.425 6.8297 5.358 7.4194 5.358 0.2673 0 0.4873 0.119 0.489 0.265 0.0015 0.146 1.3354 0.884 2.9646 1.64 1.6289 0.756 3.2406 1.511 3.5816 1.678 0.7356 0.36 4.1838 1.514 6.2076 2.079 3.7566 1.048 9.2156 1.745 13.761 1.755 4.527 0.011 11.252-0.739 12.831-1.43 0.395-0.173 1.365-0.463 2.156-0.644 4.48-1.024 11.989-4.655 16.54-7.996 3.008-2.209 7.039-6.03 9.332-8.847 0.791-0.971 1.519-1.845 1.618-1.943 0.403-0.397 1.796-2.462 1.796-2.664 0-0.119 0.243-0.455 0.539-0.747 0.479-0.471 0.538-0.439 0.531 0.291-5e-3 0.451-0.176 1.458-0.382 2.236-0.204 0.778-0.594 2.37-0.865 3.537-0.616 2.648-1.341 5.294-2.328 8.49-0.421 1.362-0.904 2.954-1.075 3.538-0.465 1.593-1.122 3.41-1.662 4.599-0.265 0.583-0.587 1.5-0.714 2.037-0.128 0.537-0.376 1.063-0.552 1.17s-0.319 0.433-0.319 0.724-0.333 1.277-0.739 2.19-0.875 1.979-1.043 2.368c-1.085 2.52-6.51 13.18-7.8 15.329-0.857 1.427-1.558 2.743-1.558 2.924 0 0.2 8.67 0.323 22.085 0.314 21.207-0.015 23.491-0.118 22.25-1.008-0.173-0.124-0.616-0.782-0.984-1.463s-1.488-2.75-2.489-4.599c-2.325-4.293-3.882-7.458-5.656-11.497-1.189-2.709-1.773-4.113-2.354-5.659-0.364-0.973-0.87-2.167-1.124-2.654-0.253-0.486-0.461-1.157-0.463-1.491-1e-3 -0.334-0.23-1.13-0.509-1.769-1.444-3.311-5.243-17.383-5.243-19.423 0-0.671 0.255-0.457 1.318 1.109 0.725 1.068 1.412 2.021 1.527 2.118 0.115 0.098 0.848 0.973 1.629 1.946 1.678 2.092 5.852 6.176 7.697 7.531 0.718 0.527 1.511 1.151 1.764 1.386 0.616 0.572 6.408 4.022 7.986 4.757 5.546 2.581 9.53 3.819 15.136 4.705 6.404 1.012 15.804 0.54 21.516-1.08 2.741-0.777 6.007-1.856 6.747-2.228 0.341-0.171 1.994-0.956 3.674-1.744 3.3-1.548 7.45-4.244 10.439-6.783 1.893-1.608 5.404-5.088 6.316-6.261 3.205-4.122 4.594-6.254 6.506-9.988 1.239-2.419 2.252-4.655 2.252-4.97 0-0.314 0.146-0.723 0.325-0.908 0.402-0.415 1.325-3.857 2.225-8.295 0.897-4.421 0.947-13.361 0.098-17.687-0.644-3.286-2.485-9.561-3.216-10.967-0.253-0.486-0.834-1.68-1.29-2.653-2.226-4.744-5.737-9.669-9.877-13.853-2.671-2.7-6.341-5.78-6.889-5.78-0.231 0-0.421-0.141-0.421-0.313 0-0.345-4.762-3.224-5.333-3.224-0.196 0-0.41-0.119-0.476-0.265-0.196-0.435-3.921-2.113-7.127-3.211-5.286-1.81-11.235-2.892-15.901-2.892-1.927 1e-3 -3.503-0.064-3.503-0.144 0-0.079 0.391-0.915 0.87-1.857 2.521-4.962 3.981-9.663 4.873-15.686 0.719-4.852 0.138-15.124-1.071-18.925-0.185-0.584-0.669-2.174-1.075-3.534-0.916-3.067-1.19-3.725-3.388-8.133-1.735-3.48-3-5.552-3.533-5.785-0.149-0.065-0.27-0.281-0.27-0.48 0-0.553-3.465-4.72-6.005-7.22-2.604-2.563-7.663-6.532-9.896-7.763-11.006-6.07-21.192-8.156-33.557-6.874z" clip-rule="evenodd" fill="#31312F" fill-rule="evenodd"/>
</svg>
