<?xml version="1.0" encoding="UTF-8"?>
<svg viewBox="0 0 315 450" xmlns="http://www.w3.org/2000/svg">
<rect width="314.79" height="449.18" rx="5" fill="#FAEE98"/>
<path d="m154.73 114.48c-10.277 14.843-20.48 26.682-35.776 41.514-37.629 36.486-45.374 44.775-53.761 57.544-4.1668 6.343-7.9971 14.191-10.327 21.16-4.896 14.642-4.1019 31.82 2.0348 44.004 10.546 20.938 34.856 33.014 58.297 28.958 14.887-2.575 26.109-10.027 36.77-24.419 2.534-3.421 4.749-6.22 4.921-6.22 1.344 0-6.688 28.312-11.242 39.628-1.714 4.26-8.628 18.133-10.744 21.557-0.8 1.295-1.455 2.58-1.456 2.858-2e-3 0.278 11.857 0.504 26.352 0.504s26.355-0.148 26.355-0.329c0-0.18-1.701-3.385-3.779-7.12-8.562-15.388-16.633-38.18-19.505-55.081l-0.399-2.353 1.536 1.965c12.669 16.2 17.224 20.401 27.005 24.897 7.726 3.552 13.092 4.66 22.511 4.65 12.315-0.013 20.875-2.591 31.202-9.398 15.841-10.44 23.978-26.942 22.996-46.64-0.622-12.503-4.211-23.713-11.289-35.263-8.785-14.335-17.707-24.294-44.84-50.051-11.049-10.489-23.252-22.744-27.118-27.233-7.232-8.399-19.013-23.638-22.414-28.995-1.057-1.666-2.075-3.015-2.261-2.999-0.186 0.017-2.467 3.105-5.068 6.862z" clip-rule="evenodd" fill="#31312F" fill-rule="evenodd"/>
</svg>
