<?xml version="1.0" encoding="UTF-8"?>
<svg viewBox="0 0 315 450" xmlns="http://www.w3.org/2000/svg">
<rect width="314.79" height="449.18" rx="5" fill="#FAEE98"/>
<path d="m106.21 141.12c-9.2016 1.92-16.416 5.922-23.414 12.986-5.7369 5.791-8.8709 11.106-11.005 18.661-1.7632 6.241-1.7571 18.706 0.0123 25.371 4.5983 17.322 14.895 31.752 39.578 55.465 21.826 20.968 30.34 30.231 40.31 43.854 6.228 8.509 7.425 10.21 7.66 10.873 0.301 0.854 0.105 1.07 3.193-3.522 3.166-4.707 10.324-14.198 15.353-20.357 4.549-5.571 15.538-16.781 31.342-31.972 23.42-22.51 33.905-37.278 38.218-53.826 1.958-7.512 2.079-19.06 0.269-25.804-5.356-19.968-24.934-33.675-46.267-32.393-3.078 0.185-7.031 0.728-8.784 1.207-7.566 2.064-15.473 6.848-20.39 12.336-2.545 2.839-9.016 11.454-11.045 14.704-0.547 0.874-1.208 1.51-1.471 1.413-0.262-0.097-2.293-2.721-4.512-5.831-9.885-13.855-16.827-19.334-28.804-22.729-4.23-1.199-15.433-1.44-20.243-0.436z" clip-rule="evenodd" fill="#A1312D" fill-rule="evenodd"/>
</svg>
